<svg xmlns="http://www.w3.org/2000/svg"  width="32" height="32" fill="#fff" viewBox="0 0 896 1024" role="img"><path d="M704 415a32 32 0 01-32 32H352a32 32 0 010-64h320a32 32 0 0132 32zm-352-96h128a32 32 0 000-64H352a32 32 0 000 64zm320 192H352a32 32 0 000 64h320a32 32 0 000-64zm0 128H352a32 32 0 000 64h320a32 32 0 000-64zm160-397.255V767a64 64 0 01-64 64h-64v64a63.995 63.995 0 01-64 64H128a63.995 63.995 0 01-64-64V255a63.995 63.995 0 0164-64h64v-64a64 64 0 0164-64h397.255zM640 831H256a64 64 0 01-64-64V255h-64v640h512zm128-512h-96a96.109 96.109 0 01-96-96v-96H256v640h512zm-13.255-64L640 140.255V223a32 32 0 0032 32z"/></svg>